<?xml version="1.0" encoding="UTF-8"?>
<svg width="116px" height="74px" viewBox="0 0 116 74" version="1.1" xmlns="http://www.w3.org/2000/svg" xmlns:xlink="http://www.w3.org/1999/xlink">
    <title>PLAST_2020_Badge_FNL</title>
    <g id="Page-1" stroke="none" stroke-width="1" fill="none" fill-rule="evenodd">
        <g id="PLAST_2020_Badge_FNL" transform="translate(1.000000, 1.000000)">
            <polyline id="Fill-1" fill="#ECC94B" points="57.04 71.549 113.613 0.891 0.467 0.891 57.04 71.549" class="shadow-lg"></polyline>
            <path d="M63.559,60.069 L33.337,29.814 M41.275,22.711 L25.397,13.823 M69.531,7.201 L28.021,4.817 M91.204,8.446 L77.758,7.674 M106.459,9.322 L97.112,8.786 M60.631,18.21 L27.32,9.119" id="Stroke-2" stroke="#C53030" stroke-width="1.44" stroke-linejoin="round"></path>
            <path d="M91.175,8.491 C92.573,6.764 95.206,6.757 96.614,8.478 L102.102,15.213 L75.74,48.402 L67.269,38.085 L91.175,8.491 Z" id="Fill-3" fill="#ECC94B"></path>
            <path d="M67.269,38.085 L91.175,8.491 C92.573,6.764 95.206,6.757 96.614,8.478 L102.102,15.213 L75.74,48.402 L67.269,38.085 Z M84.9945478,16.3032061 L85.984,17.125 C87.402,18.483 90.068,18.481 91.484,17.12 L92.668,15.982 C94.084,14.621 96.75,14.619 98.168,15.978 L99.353,17.112 C99.531,17.282 99.727,17.431 99.939,17.559 C101.381,15.995 102.102,15.213 102.102,15.213 C102.102,15.213 99.4599759,12.2764184 97.6122685,9.60856733 C95.8581794,7.07588887 94.3823664,7.19148912 94.1420821,7.19148912 C93.4816031,7.19148911 92.6760721,7.07588887 91.708,8.06 C90.6924474,9.09237822 88.45463,11.8401136 84.9945478,16.3032061 Z" id="Stroke-4" stroke="#C53030" stroke-width="1.44" stroke-linejoin="round"></path>
            <path d="M46.588,35.596 L70.652,5.778 C72.051,4.051 74.684,4.044 76.092,5.765 L93.013,26.587 L66.099,60.576 L47.289,41.782 L46.588,35.596" id="Fill-5" fill="#ECC94B"></path>
            <path d="M46.588,35.596 L70.652,5.778 C72.051,4.051 74.684,4.044 76.092,5.765 L93.013,26.587 L66.099,60.576 L47.289,41.782 L46.588,35.596 Z M80.697,11.567 C80.314,11.683 79.963,11.875 79.682,12.146 L78.863,12.932 C77.885,13.872 76.043,13.873 75.062,12.935 L74.244,12.15 C73.264,11.212 71.422,11.213 70.443,12.153 L69.625,12.939 C68.646,13.88 66.805,13.882 65.824,12.943 L65.2328937,12.6340305 C66.7717007,10.6270143 67.8530694,9.23100409 68.477,8.446 C69.4864314,7.17597447 70.2597476,6.12685746 70.9980242,5.45178584 C71.7334408,4.77932941 72.4347415,4.47846734 72.9649469,4.47846734 C73.6241649,4.47846734 74.5621923,4.47217476 75.3932289,5.10309264 C76.3554668,5.83361777 78.1233905,7.98825356 80.697,11.567 Z" id="Stroke-6" stroke="#C53030" stroke-width="1.44" stroke-linejoin="round"></path>
            <path d="M24.813,21.337 C25.558,20.205 26.521,19.342 27.703,18.747 C28.884,18.152 30.128,17.856 31.437,17.856 C33.219,17.856 34.611,18.245 35.615,19.024 C36.62,19.804 37.122,20.896 37.122,22.301 C37.122,22.774 37.056,23.211 36.922,23.61 C36.788,24.011 36.565,24.393 36.256,24.758 C35.945,25.123 35.568,25.466 35.125,25.785 C34.681,26.105 30.409,28.404 29.306,28.781 L37.404,28.551 L37.404,31.18 L25.044,31.18 L25.044,28.534 L32.786,24.501 C33.537,24.114 34.061,23.768 34.356,23.461 C34.652,23.153 34.801,22.767 34.801,22.301 C34.801,21.767 34.51,21.33 33.93,20.991 C33.349,20.653 32.519,20.484 31.437,20.484 C30.498,20.484 29.643,20.659 28.872,21.009 C28.1,21.358 27.292,21.957 26.443,22.804 L24.813,21.337" id="Fill-7" fill="#C53030"></path>
            <path d="M24.813,21.337 C25.558,20.205 26.521,19.342 27.703,18.747 C28.884,18.152 30.128,17.856 31.437,17.856 C33.219,17.856 34.611,18.245 35.615,19.024 C36.62,19.804 37.122,20.896 37.122,22.301 C37.122,22.774 37.056,23.211 36.922,23.61 C36.788,24.011 36.565,24.393 36.256,24.758 C35.945,25.123 35.568,25.466 35.125,25.785 C34.681,26.105 30.409,28.404 29.306,28.781 L37.404,28.551 L37.404,31.18 L25.044,31.18 L25.044,28.534 L32.786,24.501 C33.537,24.114 34.061,23.768 34.356,23.461 C34.652,23.153 34.801,22.767 34.801,22.301 C34.801,21.767 34.51,21.33 33.93,20.991 C33.349,20.653 32.519,20.484 31.437,20.484 C30.498,20.484 29.643,20.659 28.872,21.009 C28.1,21.358 27.292,21.957 26.443,22.804 L24.813,21.337 Z" id="Stroke-8" stroke="#C53030" stroke-width="1.44" stroke-linejoin="round"></path>
            <path d="M43.087,22.414 C42.566,23.043 42.306,23.78 42.306,24.624 C42.306,25.469 42.566,26.206 43.087,26.834 C43.607,27.464 44.323,27.942 45.233,28.272 C46.144,28.6 47.186,28.765 48.357,28.765 C49.53,28.765 50.571,28.6 51.481,28.272 C52.393,27.942 53.106,27.464 53.624,26.834 C54.142,26.206 54.401,25.469 54.401,24.624 C54.401,23.78 54.142,23.043 53.624,22.414 C53.106,21.785 52.393,21.306 51.481,20.978 C50.571,20.648 49.53,20.484 48.357,20.484 C47.186,20.484 46.144,20.648 45.233,20.978 C44.323,21.306 43.607,21.785 43.087,22.414 Z M41.106,28.195 C40.358,27.158 39.983,25.967 39.983,24.624 C39.983,23.281 40.358,22.091 41.106,21.054 C41.854,20.016 42.86,19.223 44.124,18.676 C45.387,18.129 46.799,17.856 48.357,17.856 C49.917,17.856 51.327,18.129 52.589,18.676 C53.85,19.223 54.854,20.016 55.601,21.054 C56.349,22.091 56.723,23.281 56.723,24.624 C56.723,25.967 56.349,27.158 55.601,28.195 C54.854,29.233 53.85,30.025 52.589,30.572 C51.327,31.119 49.917,31.394 48.357,31.394 C46.799,31.394 45.387,31.119 44.124,30.572 C42.86,30.025 41.854,29.233 41.106,28.195 L41.106,28.195 Z" id="Fill-9" fill="#C53030"></path>
            <path d="M43.087,22.414 C42.566,23.043 42.306,23.78 42.306,24.624 C42.306,25.469 42.566,26.206 43.087,26.834 C43.607,27.464 44.323,27.942 45.233,28.272 C46.144,28.6 47.186,28.765 48.357,28.765 C49.53,28.765 50.571,28.6 51.481,28.272 C52.393,27.942 53.106,27.464 53.624,26.834 C54.142,26.206 54.401,25.469 54.401,24.624 C54.401,23.78 54.142,23.043 53.624,22.414 C53.106,21.785 52.393,21.306 51.481,20.978 C50.571,20.648 49.53,20.484 48.357,20.484 C47.186,20.484 46.144,20.648 45.233,20.978 C44.323,21.306 43.607,21.785 43.087,22.414 Z M41.106,28.195 C40.358,27.158 39.983,25.967 39.983,24.624 C39.983,23.281 40.358,22.091 41.106,21.054 C41.854,20.016 42.86,19.223 44.124,18.676 C45.387,18.129 46.799,17.856 48.357,17.856 C49.917,17.856 51.327,18.129 52.589,18.676 C53.85,19.223 54.854,20.016 55.601,21.054 C56.349,22.091 56.723,23.281 56.723,24.624 C56.723,25.967 56.349,27.158 55.601,28.195 C54.854,29.233 53.85,30.025 52.589,30.572 C51.327,31.119 49.917,31.394 48.357,31.394 C46.799,31.394 45.387,31.119 44.124,30.572 C42.86,30.025 41.854,29.233 41.106,28.195 Z" id="Stroke-10" stroke="#C53030" stroke-width="1.44" stroke-linejoin="round"></path>
            <path d="M59.448,21.337 C60.192,20.205 61.156,19.342 62.337,18.747 C63.518,18.152 64.764,17.856 66.072,17.856 C67.853,17.856 69.245,18.245 70.25,19.024 C71.254,19.804 71.758,20.896 71.758,22.301 C71.758,22.774 71.689,23.211 71.556,23.61 C71.422,24.011 71.2,24.393 70.89,24.758 C70.58,25.123 70.204,25.466 69.761,25.785 C69.316,26.105 65.045,28.404 63.94,28.781 L72.039,28.551 L72.039,31.18 L59.679,31.18 L59.679,28.534 L67.422,24.501 C68.173,24.114 68.696,23.768 68.992,23.461 C69.288,23.153 69.435,22.767 69.435,22.301 C69.435,21.767 69.145,21.33 68.565,20.991 C67.984,20.653 67.154,20.484 66.072,20.484 C65.134,20.484 64.277,20.659 63.506,21.009 C62.735,21.358 61.927,21.957 61.078,22.804 L59.448,21.337" id="Fill-11" fill="#C53030"></path>
            <path d="M59.448,21.337 C60.192,20.205 61.156,19.342 62.337,18.747 C63.518,18.152 64.764,17.856 66.072,17.856 C67.853,17.856 69.245,18.245 70.25,19.024 C71.254,19.804 71.758,20.896 71.758,22.301 C71.758,22.774 71.689,23.211 71.556,23.61 C71.422,24.011 71.2,24.393 70.89,24.758 C70.58,25.123 70.204,25.466 69.761,25.785 C69.316,26.105 65.045,28.404 63.94,28.781 L72.039,28.551 L72.039,31.18 L59.679,31.18 L59.679,28.534 L67.422,24.501 C68.173,24.114 68.696,23.768 68.992,23.461 C69.288,23.153 69.435,22.767 69.435,22.301 C69.435,21.767 69.145,21.33 68.565,20.991 C67.984,20.653 67.154,20.484 66.072,20.484 C65.134,20.484 64.277,20.659 63.506,21.009 C62.735,21.358 61.927,21.957 61.078,22.804 L59.448,21.337 Z" id="Stroke-12" stroke="#C53030" stroke-width="1.44" stroke-linejoin="round"></path>
            <path d="M78.072,22.414 C77.552,23.043 77.291,23.78 77.291,24.624 C77.291,25.469 77.552,26.206 78.072,26.834 C78.593,27.464 79.309,27.942 80.219,28.272 C81.13,28.6 82.171,28.765 83.343,28.765 C84.516,28.765 85.557,28.6 86.468,28.272 C87.378,27.942 88.092,27.464 88.61,26.834 C89.128,26.206 89.387,25.469 89.387,24.624 C89.387,23.78 89.128,23.043 88.61,22.414 C88.092,21.785 87.378,21.306 86.468,20.978 C85.557,20.648 84.516,20.484 83.343,20.484 C82.171,20.484 81.13,20.648 80.219,20.978 C79.309,21.306 78.593,21.785 78.072,22.414 Z M76.092,28.195 C75.344,27.158 74.97,25.967 74.97,24.624 C74.97,23.281 75.344,22.091 76.092,21.054 C76.84,20.016 77.846,19.223 79.109,18.676 C80.373,18.129 81.784,17.856 83.343,17.856 C84.902,17.856 86.312,18.129 87.574,18.676 C88.836,19.223 89.841,20.016 90.587,21.054 C91.334,22.091 91.708,23.281 91.708,24.624 C91.708,25.967 91.334,27.158 90.587,28.195 C89.841,29.233 88.836,30.025 87.574,30.572 C86.312,31.119 84.902,31.394 83.343,31.394 C81.784,31.394 80.373,31.119 79.109,30.572 C77.846,30.025 76.84,29.233 76.092,28.195 L76.092,28.195 Z" id="Fill-13" fill="#C53030"></path>
            <path d="M78.072,22.414 C77.552,23.043 77.291,23.78 77.291,24.624 C77.291,25.469 77.552,26.206 78.072,26.834 C78.593,27.464 79.309,27.942 80.219,28.272 C81.13,28.6 82.171,28.765 83.343,28.765 C84.516,28.765 85.557,28.6 86.468,28.272 C87.378,27.942 88.092,27.464 88.61,26.834 C89.128,26.206 89.387,25.469 89.387,24.624 C89.387,23.78 89.128,23.043 88.61,22.414 C88.092,21.785 87.378,21.306 86.468,20.978 C85.557,20.648 84.516,20.484 83.343,20.484 C82.171,20.484 81.13,20.648 80.219,20.978 C79.309,21.306 78.593,21.785 78.072,22.414 Z M76.092,28.195 C75.344,27.158 74.97,25.967 74.97,24.624 C74.97,23.281 75.344,22.091 76.092,21.054 C76.84,20.016 77.846,19.223 79.109,18.676 C80.373,18.129 81.784,17.856 83.343,17.856 C84.902,17.856 86.312,18.129 87.574,18.676 C88.836,19.223 89.841,20.016 90.587,21.054 C91.334,22.091 91.708,23.281 91.708,24.624 C91.708,25.967 91.334,27.158 90.587,28.195 C89.841,29.233 88.836,30.025 87.574,30.572 C86.312,31.119 84.902,31.394 83.343,31.394 C81.784,31.394 80.373,31.119 79.109,30.572 C77.846,30.025 76.84,29.233 76.092,28.195 Z" id="Stroke-14" stroke="#C53030" stroke-width="1.44" stroke-linejoin="round"></path>
            <path d="M17.286,21.898 C23.71,18.336 28.057,11.485 28.057,3.62 C28.057,2.695 27.997,1.784 27.881,0.891 L0.467,0.891 L17.286,21.898" id="Fill-15" fill="#ECC94B"></path>
            <path d="M17.286,21.898 C23.71,18.336 28.057,11.485 28.057,3.62 C28.057,2.695 27.997,1.784 27.881,0.891 L0.467,0.891 L17.286,21.898 Z" id="Stroke-16" stroke="#C53030" stroke-width="1.44" stroke-linejoin="round"></path>
            <polyline id="Fill-17" fill="#ECC94B" points="54.851 46.687 52.141 43.735 53.379 42.001 53.493 42.001 50.782 39.05 52.02 37.316 45.155 28.868 38.306 37.328 39.547 39.06 36.841 42.017 36.843 42.017 38.084 43.748 36.313 45.683 47.872 60.165 54.851 46.687"></polyline>
            <polygon id="Stroke-18" stroke="#C53030" stroke-width="1.44" stroke-linejoin="round" points="54.851 46.687 52.141 43.735 53.379 42.001 53.493 42.001 50.782 39.05 52.02 37.316 45.155 28.868 38.306 37.328 39.547 39.06 36.841 42.017 36.843 42.017 38.084 43.748 36.313 45.683 47.872 60.165"></polygon>
            <polyline id="Fill-19" fill="#ECC94B" points="59.196 46.683 61.901 43.727 60.66 41.995 60.658 41.995 63.364 39.039 62.123 37.308 68.973 28.848 75.838 37.295 74.6 39.028 77.31 41.981 77.196 41.981 75.958 43.714 77.758 45.674 65.093 61.585 59.196 46.683"></polyline>
            <polygon id="Stroke-20" stroke="#C53030" stroke-width="1.44" stroke-linejoin="round" points="59.196 46.683 61.901 43.727 60.66 41.995 60.658 41.995 63.364 39.039 62.123 37.308 68.973 28.848 75.838 37.295 74.6 39.028 77.31 41.981 77.196 41.981 75.958 43.714 77.758 45.674 65.093 61.585"></polygon>
            <polyline id="Fill-21" fill="#ECC94B" points="45.728 57.511 48.877 54.071 47.433 52.057 47.431 52.057 50.578 48.616 49.134 46.602 57.104 36.759 65.093 46.588 63.651 48.606 66.806 52.039 66.673 52.039 65.232 54.057 68.387 57.49 57.07 71.56 45.728 57.511"></polyline>
            <polygon id="Stroke-22" stroke="#C53030" stroke-width="1.44" stroke-linejoin="round" points="45.728 57.511 48.877 54.071 47.433 52.057 47.431 52.057 50.578 48.616 49.134 46.602 57.104 36.759 65.093 46.588 63.651 48.606 66.806 52.039 66.673 52.039 65.232 54.057 68.387 57.49 57.07 71.56"></polygon>
            <polygon id="Stroke-23" stroke="#C53030" stroke-width="2.16" stroke-linejoin="round" points="57.04 71.549 113.613 0.891 0.467 0.891"></polygon>
        </g>
    </g>
</svg>