<?xml version="1.0" encoding="UTF-8"?>
<svg width="227px" height="224px" viewBox="0 0 227 224" version="1.1" xmlns="http://www.w3.org/2000/svg" xmlns:xlink="http://www.w3.org/1999/xlink">
    <title>lsml-cal-gs-mask</title>
    <g id="lsml-cal-gs-mask" stroke="none" stroke-width="1" fill="none" fill-rule="evenodd">
        <path d="M219,23 C223.418278,23 227,26.581722 227,31 L227,216 C227,220.418278 223.418278,224 219,224 L8,224 C3.581722,224 5.41083001e-16,220.418278 0,216 L0,31 C-5.41083001e-16,26.581722 3.581722,23 8,23 L219,23 Z M107,140 L11,140 C9.34314575,140 8,141.343146 8,143 L8,143 L8,194 C8,195.656854 9.34314575,197 11,197 L11,197 L107,197 C108.656854,197 110,195.656854 110,194 L110,194 L110,143 C110,141.343146 108.656854,140 107,140 L107,140 Z M216,140 L120,140 C118.343146,140 117,141.343146 117,143 L117,143 L117,194 C117,195.656854 118.343146,197 120,197 L120,197 L216,197 C217.656854,197 219,195.656854 219,194 L219,194 L219,143 C219,141.343146 217.656854,140 216,140 L216,140 Z M43,63 L10,63 C8.8954305,63 8,63.8954305 8,65 L8,65 L8,131 C8,132.104569 8.8954305,133 10,133 L10,133 L43,133 C44.1045695,133 45,132.104569 45,131 L45,131 L45,65 C45,63.8954305 44.1045695,63 43,63 L43,63 Z M87,63 L54,63 C52.8954305,63 52,63.8954305 52,65 L52,65 L52,131 C52,132.104569 52.8954305,133 54,133 L54,133 L87,133 C88.1045695,133 89,132.104569 89,131 L89,131 L89,65 C89,63.8954305 88.1045695,63 87,63 L87,63 Z M131,63 L98,63 C96.8954305,63 96,63.8954305 96,65 L96,65 L96,131 C96,132.104569 96.8954305,133 98,133 L98,133 L131,133 C132.104569,133 133,132.104569 133,131 L133,131 L133,65 C133,63.8954305 132.104569,63 131,63 L131,63 Z M217,63 L184,63 C182.895431,63 182,63.8954305 182,65 L182,65 L182,131 C182,132.104569 182.895431,133 184,133 L184,133 L217,133 C218.104569,133 219,132.104569 219,131 L219,131 L219,65 C219,63.8954305 218.104569,63 217,63 L217,63 Z M173,63 L141,63 C139.895431,63 139,63.8954305 139,65 L139,65 L139,131 C139,132.104569 139.895431,133 141,133 L141,133 L173,133 C174.104569,133 175,132.104569 175,131 L175,131 L175,65 C175,63.8954305 174.104569,63 173,63 L173,63 Z" id="Combined-Shape" fill="#E2E8F0"></path>
        <rect id="Rectangle-Copy-9" fill="#E2E8F0" x="38" y="0" width="15" height="35" rx="4"></rect>
        <rect id="Rectangle-Copy-10" fill="#E2E8F0" x="173" y="0" width="15" height="35" rx="4"></rect>
    </g>
</svg>